<svg viewBox="0 0 60 16" fill="none" xmlns="http://www.w3.org/2000/svg"><path d="M17.81 12c1.31 0 2.19-.66 2.19-1.75 0-.93-.63-1.54-1.62-1.71-.91-.15-9.45-1.57-9.45-1.57C8.36 6.88 8 6.53 8 6c0-.62.5-1 1.25-1h11.5C21.5 5 22 5.38 22 6v4.25c0 1.09.88 1.75 2.19 1.75h11.62c1.31 0 2.19-.66 2.19-1.75V6c0-.62.5-1 1.25-1h11.5C51.5 5 52 5.37 52 6c0 .53-.36.88-.93.97 0 0-8.54 1.42-9.45 1.57-.99.16-1.62.78-1.62 1.71V12h4v-2c0-.53.36-.88.93-.97 0 0 8.54-1.42 9.45-1.57.99-.16 1.62-.78 1.62-1.71C56 4.66 55.13 4 53.81 4H36.18c-1.31 0-2.19.66-2.19 1.75V10c0 .62-.5 1-1.25 1h-5.5c-.75 0-1.25-.37-1.25-1V5.75c0-1.09-.88-1.75-2.19-1.75H6.19C4.88 4 4 4.66 4 5.75c0 .93.63 1.54 1.62 1.71.91.15 9.45 1.57 9.45 1.57.57.09.93.44.93.97 0 .62-.5 1-1.25 1H4.5v1h13.31Z" fill="#EFECDF"></path><path d="M48.04 11c0 .62-.42 1.04-1.04 1.04-.62 0-1.04-.42-1.04-1.04 0-.62.42-1.04 1.04-1.04.62 0 1.04.42 1.04 1.04Zm-.17 0c0-.53-.35-.88-.88-.88s-.88.35-.88.88.35.88.88.88.88-.35.88-.88Zm-1.42 0c0 .33.22.54.54.54.28 0 .48-.16.53-.42h-.17c-.05.15-.18.25-.36.25-.23 0-.38-.15-.38-.38s.15-.38.38-.38c.18 0 .31.1.36.25h.17a.513.513 0 0 0-.53-.42c-.32 0-.54.22-.54.54V11Z" fill="#EFECDF"></path></svg>